inDegrees=yes
name=ik_S42_A01_T01
DataType=double
version=3
OpenSimVersion=4.3-2021-08-27-4bc7ad9
endheader
time	pelvis_tilt	pelvis_list	pelvis_rotation	pelvis_tx	pelvis_ty	pelvis_tz	hip_flexion_r	hip_adduction_r	hip_rotation_r	knee_angle_r	knee_angle_r_beta	ankle_angle_r	subtalar_angle_r	mtp_angle_r	hip_flexion_l	hip_adduction_l	hip_rotation_l	knee_angle_l	knee_angle_l_beta	ankle_angle_l	subtalar_angle_l	mtp_angle_l	lumbar_extension	lumbar_bending	lumbar_rotation	arm_flex_r	arm_add_r	arm_rot_r	elbow_flex_r	pro_sup_r	wrist_flex_r	wrist_dev_r	arm_flex_l	arm_add_l	arm_rot_l	elbow_flex_l	pro_sup_l	wrist_flex_l	wrist_dev_l
31.41999999999942	-4.216600194698485	-3.662201861273751	-92.22821292942334	0	0.9399999999999999	0	-7.230238640855505	8.43273175478153	-1.890361398052368	6.143160162780333	0.1072183713178676	0	0	0	19.26178619490202	-6.776357113450585	-10.11773186431328	2.369478812984897	0.04135520684283343	0	0	0	0	0	0	43.16383474386396	-43.16383474386395	4.981376157825538	84.73946528816508	85.01862411576811	0	0	43.16383474386396	-43.16383474386395	4.981376157825538	84.73946528816508	85.01862411576474	0	0
31.43999999999942	-4.464212796267571	-3.58726043119889	-92.92259784777346	0	0.9399999999999999	0	-8.21463725397988	8.370830037749476	-1.752024382584279	6.440229842932876	0.1124032153443759	0	0	0	18.94925306817994	-6.776153529493383	-11.83112747560699	2.312424315407057	0.04035941800702898	0	0	0	0	0	0	43.16414015199626	-43.16414015199626	4.981382360699696	84.7395520633159	85.0186179128942	0	0	43.16414015199626	-43.16414015199626	4.981382360699696	84.7395520633159	85.01861791289083	0	0
31.45999999999942	-5.05659954044636	-2.955528921021005	-94.20674703487656	0	0.9399999999999999	0	-7.831726691924468	8.73128415741272	-0.5297363499038756	7.630425815334294	0.1331760538067563	0	0	0	19.3848460307349	-6.812054294760484	-14.19438876915676	-5.210867180604383	-0.09094678918566049	0	0	0	0	0	0	43.15182007358921	-43.15182007358921	4.981179712846989	84.73671713387311	85.0188205607396	0	0	43.15182007358921	-43.15182007358921	4.981179712846989	84.73671713387311	85.0188205607362	0	0
31.47999999999942	-5.329885193668169	-2.776591134764045	-94.74152308396783	0	0.9399999999999999	0	-9.542711744890607	8.523820818976503	-0.8361832949707788	7.387657029677132	0.1289389391759704	0	0	0	19.49170762087515	-6.267927941125582	-16.84847330338992	-7.307115297478658	-0.1275332207638475	0	0	0	0	0	0	43.14692952969312	-43.14692952969311	4.981098180713286	84.73557654478822	85.01890209287033	0	0	43.14692952969312	-43.14692952969311	4.981098180713286	84.73557654478822	85.01890209286694	0	0
31.49999999999942	-5.593182868726569	-2.811146961660385	-95.21113326056329	0	0.9399999999999999	0	-11.32386247382949	8.361458626255635	-0.6132508220007727	7.453455768539649	0.1300873438127813	0	0	0	19.63890030876195	-5.886975709536168	-19.27455126006305	-7.57702222406733	-0.1322439853067584	0	0	0	0	0	0	43.14733636745002	-43.14733636745001	4.981106519529403	84.73569320075244	85.01889375405455	0	0	43.14733636745002	-43.14733636745001	4.981106519529403	84.73569320075244	85.01889375405115	0	0
31.51999999999942	-5.760184513592487	-2.942598120264157	-95.44565392010959	0	0.9399999999999999	0	-12.30879018492979	8.09655817774329	-0.6060261135519704	8.927887504139971	0.1558210321949014	0	0	0	20.08450359832423	-5.560488210346302	-18.44235685765131	-6.692884025742216	-0.1168128627033346	0	0	0	0	0	0	43.14774418508044	-43.14774418508043	4.981114898116056	84.73581041309347	85.01888537546822	0	0	43.14774418508044	-43.14774418508043	4.981114898116056	84.73581041309347	85.01888537546482	0	0
31.53999999999942	-6.011692959981141	-3.415650776998394	-95.77957551509874	0	0.9399999999999999	0	-13.60497282434619	8.001247132513219	-0.4226652829134018	9.768925654271095	0.1704999170495719	0	0	0	20.01478140377746	-5.414707200584925	-13.34567926339015	-5.927353537265466	-0.1034518351550148	0	0	0	0	0	0	43.15234691644292	-43.15234691644292	4.981196977213629	84.7369586558018	85.01880329637365	0	0	43.15234691644292	-43.15234691644292	4.981196977213629	84.7369586558018	85.01880329637025	0	0
31.55999999999942	-6.137113738240842	-3.933763231154027	-96.1656242653067	0	0.9399999999999999	0	-14.85120362664699	7.604257638723408	-0.6424079833692481	11.15037437326234	0.194610745643427	0	0	0	19.16781578025063	-5.409903888711551	-11.55037221952162	-3.175162791642192	-0.05541704500097094	0	0	0	0	0	0	43.16109432131463	-43.16109432131462	4.981349484176969	84.7390921455037	85.01865078941586	0	0	43.16109432131463	-43.16109432131462	4.981349484176969	84.7390921455037	85.01865078941248	0	0
31.57999999999942	-6.076054112332065	-4.166615695330161	-96.70193336628293	0	0.9399999999999999	0	-15.82432012876377	6.829345438296121	-1.149882564081455	12.41221117585434	0.2166339524714952	0	0	0	18.91843325955832	-5.658247108036971	-11.93708453275739	-1.349531227393715	-0.02355376327650062	0	0	0	0	0	0	43.16188534257357	-43.16188534257356	4.981365631341967	84.73931803640438	85.01863464225148	0	0	43.16188534257357	-43.16188534257356	4.981365631341967	84.73931803640438	85.0186346422481	0	0
31.59999999999942	-5.780960798636285	-4.139205049746093	-97.26140336984344	0	0.9399999999999999	0	-16.30851293330806	5.888230536418043	-1.706662403460893	12.9546247221745	0.2261008547622007	0	0	0	17.9625874886524	-4.719747670972765	-9.858744042199776	-0.7944369767223298	-0.01386554094339421	0	0	0	0	0	0	43.16551432031708	-43.16551432031707	4.981429157242974	84.74020672938749	85.01857111635279	0	0	43.16551432031708	-43.16551432031707	4.981429157242974	84.74020672938749	85.01857111634941	0	0
31.61999999999941	-5.448149537664545	-3.964050932057084	-97.41285375202553	0	0.9399999999999999	0	-16.05526099742902	4.64527265350086	-2.840475952263567	15.20716931593831	0.2654151744713773	0	0	0	17.01672646841878	-4.241026990004157	-9.764518708918935	-1.938186556470651	-0.03382773692830386	0	0	0	0	0	0	43.16627907023456	-43.16627907023455	4.981444742712564	84.74042476242867	85.01855553088377	0	0	43.16627907023456	-43.16627907023455	4.981444742712564	84.74042476242867	85.01855553088041	0	0
31.63999999999941	-4.533424294596958	-3.565014197331958	-97.40118277164495	0	0.9399999999999999	0	-15.62646399881842	3.510142000028752	-3.316235044407382	17.01565280479031	0.2969791658197989	0	0	0	17.24401611753711	-3.101628402910706	-11.13715732624956	0.261762362882939	0.004568615090107482	0	0	0	0	0	0	43.16674798807358	-43.16674798807358	4.981454283955421	84.74055823971098	85.01854598964132	0	0	43.16674798807358	-43.16674798807358	4.981454283955421	84.74055823971098	85.01854598963794	0	0
31.65999999999941	-3.639175029244519	-3.508294378569524	-97.10960242766794	0	0.9399999999999999	0	-14.91421895864044	1.541315483028527	-4.917109605646312	19.78572940037368	0.3453261229451641	0	0	0	16.94246626417055	-2.455604660747218	-5.186250195412292	0.69067711236056	0.0120545896788586	0	0	0	0	0	0	43.17228088005894	-43.17228088005893	4.981553137604958	84.74194114943593	85.01844713599539	0	0	43.17228088005894	-43.17228088005893	4.981553137604958	84.74194114943593	85.01844713599203	0	0
31.67999999999941	-2.539499521480827	-4.014775242561239	-96.26466644144136	0	0.9399999999999999	0	-15.4004588522507	0.2290220624133033	-6.290393720948757	21.57306261922526	0.3765209724443925	0	0	0	16.64946519695604	-1.176232940546255	-1.448346522748263	2.109408803212132	0.03681612888660483	0	0	0	0	0	0	43.1792776448487	-43.1792776448487	4.981676103557946	84.74366137669793	85.01832417004691	0	0	43.1792776448487	-43.1792776448487	4.981676103557946	84.74366137669793	85.01832417004354	0	0
31.69999999999941	-2.195454282027995	-4.168496134045962	-96.18919774095582	0	0.9399999999999999	0	-10.86401611323405	-3.835104597511845	-7.809918129501104	30.48321621716757	0.5320324895869049	0	0	0	15.39121044624564	-0.636484977561615	-5.148904881656892	3.870061824957153	0.06754532110124278	0	0	0	0	0	0	43.20781712603439	-43.20781712603439	4.982164709891561	84.75049671097405	85.01783556373104	0	0	43.20781712603439	-43.20781712603439	4.982164709891561	84.75049671097405	85.01783556372776	0	0
31.71999999999941	-2.035803142581052	-4.237860176162054	-96.2618568775123	0	0.9399999999999999	0	-8.865391325324104	-4.605812436476586	-7.39661923882058	32.64036920065587	0.5696819116179945	0	0	0	14.39641576990795	-0.1268956085934869	-8.219009016865435	5.13935607064139	0.08969868486505053	0	0	0	0	0	0	43.215888847328	-43.215888847328	4.982303045578892	84.75243195130868	85.01769722804872	0	0	43.215888847328	-43.215888847328	4.982303045578892	84.75243195130868	85.01769722804546	0	0
31.73999999999941	-1.669164491180784	-4.349187264391888	-96.60195068827534	0	0.9399999999999999	0	-6.771851161951536	-6.106399333001032	-6.412655898128145	38.52521478218522	0.6723918429871221	0	0	0	11.45244550913298	0.8421856869906923	-9.153726035208743	3.613738637770352	0.06307163753562736	0	0	0	0	0	0	43.21675369255474	-43.21675369255473	4.982320252019116	84.75267266070598	85.01768002160914	0	0	43.21675369255474	-43.21675369255473	4.982320252019116	84.75267266070598	85.01768002160588	0	0
31.75999999999941	-1.197517023894695	-4.266238796462091	-96.95723099703297	0	0.9399999999999999	0	-4.477855398677701	-7.155542221693009	-5.826524130039815	41.98948148433345	0.7328547031068146	0	0	0	10.27492669024678	1.302984108178382	-8.61334066853817	3.90214466053866	0.06810527221551607	0	0	0	0	0	0	43.22965333355079	-43.22965333355079	4.982537618869355	84.75571350239748	85.01746265476679	0	0	43.22965333355079	-43.22965333355079	4.982537618869355	84.75571350239748	85.01746265476361	0	0
31.77999999999941	-0.6879067864175885	-4.065110726588556	-97.17064045466651	0	0.9399999999999999	0	-2.044338734633871	-7.913549976941893	-6.200878945294106	44.73894488682662	0.7808418921434063	0	0	0	10.57259586089742	1.836359486604439	-8.91504652711798	4.915712671494536	0.08579537119958605	0	0	0	0	0	0	43.24351503368629	-43.24351503368629	4.982770608249665	84.75897289445433	85.01722966539486	0	0	43.24351503368629	-43.24351503368629	4.982770608249665	84.75897289445433	85.01722966539171	0	0
31.79999999999941	-0.1532363494417791	-3.858203066298169	-97.21783649982767	0	0.9399999999999999	0	0.3646654043583073	-8.816145251931017	-6.563680442511975	46.56789458530325	0.8127630862351811	0	0	0	10.89746702927633	2.41878928127407	-8.974720492553825	5.937595185818267	0.1036305856430933	0	0	0	0	0	0	43.25628617143926	-43.25628617143926	4.982983961170241	84.76195758293997	85.01701631248197	0	0	43.25628617143926	-43.25628617143926	4.982983961170241	84.76195758293997	85.01701631247882	0	0
31.81999999999941	0.05035035570984003	-3.78416664441739	-97.20054325543015	0	0.9399999999999999	0	2.705627107006918	-9.387043349821594	-6.912676562031598	47.72100152242768	0.8328885989155898	0	0	0	11.02069407812563	2.665496810242951	-8.983928232003626	6.771770083443586	0.1181896841441417	0	0	0	0	0	0	43.26769303247261	-43.26769303247261	4.983173640868841	84.76461109597415	85.01682663279017	0	0	43.26769303247261	-43.26769303247261	4.983173640868841	84.76461109597415	85.01682663278703	0	0
31.83999999999941	0.2363017778495866	-3.731760554591441	-97.1289883039933	0	0.9399999999999999	0	4.93253626718052	-9.604776102677357	-7.516228008138437	48.4303603559698	0.845269246139006	0	0	0	7.856813261738766	3.111002158744296	-5.918171642503078	3.133576752174416	0.05469123168939394	0	0	0	0	0	0	43.26829966631399	-43.26829966631399	4.983185922309901	84.76478290708496	85.01681435134952	0	0	43.26829966631399	-43.26829966631399	4.983185922309901	84.76478290708496	85.01681435134638	0	0
